<?xml version="1.0" standalone="no"?>
<!DOCTYPE svg PUBLIC "-//W3C//DTD SVG 20010904//EN"
 "http://www.w3.org/TR/2001/REC-SVG-20010904/DTD/svg10.dtd">
<svg version="1.0" xmlns="http://www.w3.org/2000/svg"
 width="480.000000pt" height="480.000000pt" viewBox="0 0 480.000000 480.000000"
 preserveAspectRatio="xMidYMid meet">
<metadata>
Created by potrace 1.14, written by Peter Selinger 2001-2017
</metadata>
<g transform="translate(0.000000,480.000000) scale(0.100000,-0.100000)"
fill="#000000" stroke="none">
<path d="M1086 3903 c-4 -4 -21 -8 -39 -9 -30 -1 -97 -10 -162 -21 -16 -3 -37
-5 -45 -5 -8 -1 -19 -4 -25 -8 -5 -4 -18 -6 -27 -5 -10 2 -18 0 -18 -5 0 -4
-10 -6 -22 -6 -13 1 -27 -1 -33 -4 -5 -3 -44 -19 -85 -35 -86 -33 -180 -83
-239 -130 -44 -35 -151 -148 -157 -167 -3 -10 -9 -18 -13 -18 -5 0 -14 -15
-22 -32 -7 -18 -16 -35 -20 -38 -9 -7 -60 -150 -53 -150 4 0 1 -6 -5 -14 -6
-8 -11 -18 -10 -22 2 -5 -1 -34 -5 -66 -15 -108 -6 -289 16 -331 5 -9 7 -21 4
-25 -4 -7 38 -98 84 -180 23 -41 107 -133 163 -179 53 -44 257 -160 257 -147
0 4 6 1 14 -5 13 -11 46 -22 74 -23 6 -1 12 -5 12 -10 0 -4 3 -7 8 -6 4 0 14
-1 22 -5 8 -3 29 -9 45 -13 17 -4 37 -9 45 -12 8 -2 25 -5 38 -6 12 0 22 -4
22 -7 0 -4 17 -10 38 -13 49 -8 114 -17 130 -18 6 -1 12 -4 12 -7 0 -4 12 -8
28 -9 15 -1 50 -6 77 -12 92 -19 100 -20 135 -26 19 -3 43 -7 52 -10 9 -3 25
-6 35 -8 10 -2 38 -9 63 -16 25 -7 52 -14 60 -15 30 -7 116 -41 159 -64 52
-27 143 -110 135 -122 -3 -5 0 -9 7 -9 7 0 9 -3 6 -7 -4 -3 -2 -12 4 -20 16
-18 14 -94 -5 -168 -15 -61 -116 -168 -197 -207 -89 -44 -113 -52 -194 -65
-54 -9 -281 -8 -329 1 -21 4 -48 9 -60 10 -12 1 -26 5 -31 8 -6 3 -26 9 -45
13 -19 4 -39 11 -45 15 -5 5 -14 9 -20 10 -36 8 -66 21 -165 71 -150 76 -164
83 -239 133 -41 26 -82 51 -90 54 -9 3 -22 12 -29 19 -7 7 -19 13 -26 13 -7 0
-55 -63 -106 -140 -51 -77 -97 -140 -101 -140 -5 0 -9 -5 -9 -12 0 -13 -51
-91 -62 -96 -5 -2 -8 -10 -8 -18 0 -8 -4 -14 -10 -14 -29 0 2 -27 123 -107
139 -93 171 -112 227 -140 19 -9 38 -21 41 -26 3 -5 8 -8 10 -7 2 1 29 -9 59
-22 58 -26 185 -71 235 -84 35 -9 42 -11 53 -14 4 -1 12 -3 17 -4 6 -1 26 -5
45 -9 72 -14 140 -25 195 -30 17 -2 36 -6 42 -10 5 -3 13 -3 17 0 8 9 46 12
46 4 0 -6 1651 -4 2370 3 372 3 442 6 489 20 9 3 39 8 66 12 28 3 52 10 53 15
2 5 8 6 13 3 6 -3 15 -1 22 4 7 5 20 8 30 7 9 -2 17 1 17 6 0 5 6 9 14 9 23 0
145 67 191 105 63 51 134 125 141 147 3 10 10 18 15 18 6 0 8 4 4 9 -3 5 -1
12 5 16 9 5 64 108 68 128 1 4 2 8 3 10 0 1 2 9 4 17 2 8 11 40 19 71 42 150
43 370 4 481 -6 15 -10 30 -9 32 1 7 -53 106 -85 158 -13 20 -49 64 -81 99
-76 81 -228 181 -247 162 -3 -4 -6 -2 -6 4 0 11 -34 23 -85 30 -16 2 -34 8
-40 15 -7 7 -7 9 1 5 22 -12 174 43 174 63 0 6 5 10 10 10 6 0 24 12 41 28 45
39 51 45 79 82 14 18 31 39 38 47 7 7 10 13 6 13 -4 0 0 8 8 18 23 26 48 79
41 86 -4 3 -2 6 4 6 9 0 23 32 22 50 0 3 5 19 11 35 29 74 31 199 6 407 -1 3
-4 10 -8 14 -5 4 -8 17 -8 28 0 23 -22 92 -33 102 -4 4 -7 13 -7 21 0 15 -64
124 -95 162 -42 51 -111 106 -172 139 -29 15 -53 31 -53 35 0 5 -5 5 -10 2 -6
-4 -17 -1 -25 5 -8 7 -15 9 -15 5 0 -4 -7 -2 -15 5 -8 7 -21 10 -30 7 -8 -4
-17 -2 -20 3 -4 6 -16 10 -29 10 -12 0 -26 3 -30 7 -7 7 -44 11 -133 16 -29 1
-53 5 -53 8 0 8 -1589 11 -1601 3 -11 -6 11 -54 24 -54 6 0 8 -3 5 -6 -5 -4
203 -427 217 -442 7 -8 123 -7 119 0 -3 4 0 8 5 8 6 0 11 -3 11 -7 0 -10 132
-9 148 1 7 4 12 3 12 -2 0 -10 50 -9 68 2 7 4 12 4 12 -1 0 -10 102 -9 118 1
7 4 12 4 12 -1 0 -4 22 -8 49 -8 27 0 47 3 44 8 -2 4 1 7 6 7 6 0 11 -3 11 -7
0 -10 132 -9 148 1 7 4 12 3 12 -2 0 -10 50 -9 68 2 7 4 12 4 12 -1 0 -10 102
-9 118 1 7 4 12 4 12 -1 0 -4 22 -8 49 -8 27 0 47 3 44 8 -2 4 1 7 6 7 6 0 11
-3 11 -7 0 -5 43 -8 96 -8 86 1 102 -2 152 -27 197 -98 249 -335 119 -543 -27
-43 -94 -95 -157 -120 -41 -17 -84 -19 -483 -19 -240 -1 -437 -4 -438 -6 -2
-10 26 -65 36 -72 5 -4 6 -8 2 -8 -8 0 53 -121 66 -131 5 -3 9 -10 9 -15 1 -5
28 -66 62 -136 39 -82 68 -130 81 -134 11 -4 171 -9 355 -10 341 -3 355 -3
378 -18 7 -4 16 -5 19 -2 3 3 15 0 27 -6 11 -7 23 -12 26 -13 16 -1 99 -58
122 -83 42 -47 80 -126 83 -169 0 -12 3 -25 6 -28 8 -8 -3 -114 -15 -150 -38
-112 -147 -243 -216 -260 -3 -1 -18 -8 -35 -15 -16 -7 -67 -14 -112 -15 -45
-2 -86 -6 -92 -10 -6 -3 -11 -3 -11 2 0 12 -134 10 -142 -2 -5 -7 -8 -7 -8 0
0 12 -99 13 -118 1 -6 -4 -12 -4 -12 1 0 10 -132 9 -148 -1 -7 -4 -12 -4 -12
1 0 10 -93 8 -109 -1 -6 -4 -11 -4 -11 1 0 10 -213 8 -229 -1 -6 -4 -11 -4
-11 1 0 10 -52 9 -68 -1 -7 -4 -12 -4 -12 1 0 10 -213 8 -229 -1 -6 -4 -11 -4
-11 1 0 10 -52 9 -68 -1 -7 -4 -12 -4 -12 1 0 10 -91 10 -108 -1 -7 -4 -12 -2
-12 4 0 6 -5 8 -12 4 -8 -5 -9 -2 -4 12 5 10 9 25 9 32 0 6 3 12 7 12 4 0 7 6
8 13 5 40 15 76 21 73 3 -2 7 12 8 32 5 120 9 160 13 157 3 -2 5 8 5 21 0 13
-3 24 -6 24 -10 0 -5 45 6 52 7 5 6 8 0 8 -6 0 -11 15 -11 33 -1 42 -11 104
-24 147 -6 19 -13 42 -15 52 -15 66 -141 259 -189 290 -6 3 -22 16 -36 28 -61
54 -192 125 -295 161 -22 8 -43 18 -47 24 -4 5 -8 7 -8 2 0 -4 -15 -1 -32 6
-18 8 -39 12 -45 10 -7 -3 -13 0 -13 5 0 6 -9 8 -20 5 -11 -3 -20 -1 -20 4 0
5 -6 10 -12 11 -68 6 -97 10 -105 15 -9 6 -47 15 -88 21 -11 2 -33 6 -50 10
-16 3 -39 8 -50 10 -11 3 -40 9 -65 16 -25 6 -54 12 -65 15 -28 5 -54 11 -104
25 -25 6 -54 13 -65 15 -12 1 -28 5 -36 8 -8 3 -44 15 -80 27 -75 26 -169 71
-200 97 -12 10 -30 25 -39 33 -51 43 -71 151 -42 225 15 38 102 135 121 135 6
0 19 8 30 18 11 9 22 15 24 12 2 -3 9 0 17 6 27 22 122 48 214 61 118 16 318
-1 405 -34 8 -3 21 -7 28 -9 8 -1 21 -6 30 -10 9 -4 26 -9 37 -11 11 -2 24 -8
29 -13 6 -6 18 -10 27 -10 9 0 22 -6 28 -14 7 -8 26 -18 42 -21 16 -4 29 -11
29 -16 0 -6 5 -7 10 -4 6 3 10 2 10 -2 0 -5 12 -14 28 -21 32 -14 46 -23 127
-78 54 -36 95 -48 79 -23 -3 5 -1 9 4 9 6 0 24 23 42 50 18 28 36 50 41 50 5
0 8 3 7 8 -2 6 136 208 152 222 3 3 16 22 29 43 26 42 24 46 -39 79 -14 7 -27
15 -30 18 -10 11 -151 101 -175 112 -14 6 -25 15 -25 20 0 4 -3 7 -7 6 -7 -2
-116 46 -163 71 -12 7 -103 36 -142 47 -5 1 -9 2 -10 4 -4 2 -30 7 -78 14 -23
3 -45 8 -50 11 -10 6 -89 16 -147 18 -24 1 -43 5 -43 10 0 4 -9 3 -20 -3 -15
-8 -20 -8 -20 2 0 9 -3 9 -10 -2 -6 -10 -10 -11 -10 -2 0 6 -5 12 -11 12 -5 0
-7 -5 -3 -12 5 -7 3 -8 -7 -3 -19 12 -100 14 -121 4 -11 -6 -18 -5 -21 4 -4 9
-6 8 -6 -2 -1 -10 -4 -11 -14 -2 -8 6 -17 8 -21 4z"/>
</g>
</svg>
